<svg width="64" height="64" viewBox="0 0 64 64" fill="none" xmlns="http://www.w3.org/2000/svg">
<g clip-path="url(#clip0_42_1091)">
<mask id="mask0_42_1091" style="mask-type:luminance" maskUnits="userSpaceOnUse" x="11" y="11" width="42" height="42">
<path d="M53 11H11V53H53V11Z" fill="white"/>
</mask>
<g mask="url(#mask0_42_1091)">
<mask id="mask1_42_1091" style="mask-type:luminance" maskUnits="userSpaceOnUse" x="11" y="11" width="42" height="42">
<path d="M53 11H11V53H53V11Z" fill="white"/>
</mask>
<g mask="url(#mask1_42_1091)">
<path d="M29.9179 25.9727C30.4349 26.0674 30.9658 26.0558 31.4782 25.9388C31.9906 25.8217 32.4739 25.6015 32.8984 25.2916C33.3788 24.9355 33.9 24.6382 34.4511 24.4061C34.8259 24.2926 35.1551 24.063 35.391 23.7504C35.6269 23.4377 35.7574 23.0582 35.7636 22.6666C35.821 21.9442 35.6873 21.6747 34.9936 21.4017C34.6485 21.2617 34.2936 21.1476 33.882 20.9971C34.1331 20.9463 34.3615 20.8167 34.5339 20.627C34.7062 20.4374 34.8136 20.1977 34.8403 19.9429C34.86 19.6948 34.8307 19.4453 34.7541 19.2086C34.6783 18.9711 34.5507 18.7536 34.3804 18.5716C34.2282 18.4305 34.0382 18.3369 33.8337 18.3021C33.6288 18.2686 33.4185 18.2966 33.2296 18.3826C33.0428 18.4692 32.8859 18.6092 32.7787 18.7851C32.667 18.9598 32.6133 19.1654 32.6254 19.3724C32.603 19.7432 32.5998 20.1149 32.6157 20.4861C32.0956 20.1716 31.5059 19.9904 30.8989 19.9588C30.292 19.9272 29.6866 20.046 29.1366 20.3048C29.1144 19.8818 29.0632 19.4608 28.9833 19.0448C28.9285 18.8278 28.7995 18.6369 28.6186 18.5051C28.438 18.3758 28.2168 18.3159 27.9956 18.3364C27.612 18.3987 27.3657 18.7802 27.344 19.3164C27.3406 19.654 27.4128 19.9881 27.5554 20.2942C27.698 20.6003 27.9073 20.8706 28.1679 21.0853C27.8998 21.3121 27.6505 21.5186 27.3978 21.7321C27.2143 21.8507 27.0604 22.0097 26.9478 22.1969C26.8398 22.387 26.7775 22.5995 26.7658 22.8178C26.7555 23.0365 26.7948 23.2547 26.8806 23.4562C26.974 23.657 27.1156 23.8316 27.2929 23.9644C27.9008 24.5789 28.5405 25.1612 29.2094 25.7088C29.4193 25.8555 29.6632 25.9463 29.9179 25.9727Z" fill="black"/>
<path d="M21.7426 39.8021C21.5815 39.2025 21.4726 38.59 21.4171 37.9716C21.494 35.9429 22.1343 33.9756 23.2665 32.2904C23.2952 32.254 23.3429 32.2414 23.3814 32.2155C23.3219 32.461 23.2275 32.6967 23.1013 32.9155C22.2449 34.387 21.7337 36.0337 21.6062 37.7315C21.5686 38.2132 21.6339 38.6973 21.7979 39.1518C21.9599 39.6049 22.2181 40.0175 22.5546 40.3614C22.5448 40.1584 22.5358 40.0184 22.5358 39.8714C22.526 39.1909 22.5547 38.5103 22.6218 37.833C22.8697 36.1695 23.4083 34.5625 24.213 33.0856C24.4134 32.619 24.7107 32.2002 25.0851 31.8571C25.4606 31.5161 25.9052 31.2599 26.3886 31.106C26.5678 31.0334 26.7382 30.9409 26.8967 30.8302C26.5999 30.6356 26.3795 30.5026 26.159 30.3521C25.929 30.2105 25.7638 29.9843 25.699 29.7221C25.6613 29.5924 25.6513 29.4563 25.6695 29.3224C25.6877 29.1886 25.7337 29.06 25.8047 28.9451C25.9131 28.655 26.0615 28.3814 26.2457 28.1324C26.6081 27.7469 26.8858 27.2897 27.0607 26.7903C27.2357 26.2909 27.3041 25.7604 27.2614 25.233C27.2614 25.205 27.2713 25.1763 27.2713 25.1483C27.3017 25.0129 27.2983 24.872 27.2614 24.7381C27.2208 24.6045 27.1488 24.4826 27.0514 24.3825C26.8627 24.1998 26.7154 23.9787 26.6195 23.7342C26.5236 23.4896 26.4814 23.2273 26.4956 22.965C26.5154 22.7028 26.5905 22.4477 26.7161 22.2167C26.8436 21.9861 27.0202 21.7863 27.2334 21.6315C27.4539 21.4334 27.4435 21.2906 27.3483 21.0246C26.9328 20.0491 26.8919 18.9547 27.2334 17.9509C27.2737 17.7611 27.3667 17.5864 27.5016 17.4469C27.6324 17.3065 27.7977 17.2027 27.981 17.1459C28.1677 17.0897 28.3659 17.0834 28.5557 17.1277C28.7437 17.1699 28.9163 17.2634 29.0542 17.3979C29.5046 17.7719 29.8014 18.2987 29.8878 18.8777C29.9263 19.1689 29.9453 19.4622 29.9649 19.7534H31.6035C31.613 19.6136 31.613 19.4733 31.6035 19.3334C31.5559 18.7495 31.7191 18.1679 32.0634 17.694C32.1993 17.4547 32.3898 17.2509 32.6193 17.099C32.8475 16.9456 33.1079 16.8468 33.3805 16.8104C33.653 16.7739 33.9303 16.8009 34.1908 16.889C34.4511 16.9775 34.6873 17.1251 34.881 17.3202C35.2354 17.6993 35.4987 18.1541 35.6509 18.6502C35.8055 19.145 35.8417 19.6691 35.7566 20.1804C35.6866 20.578 35.5466 20.9623 35.4402 21.3704C35.6577 21.4848 35.8375 21.6595 35.9582 21.8736C36.0789 22.0876 36.1353 22.3319 36.1206 22.5772C36.0458 23.0487 35.9468 23.516 35.8239 23.9772C35.7585 24.1667 35.7452 24.3702 35.7853 24.5666C35.9673 25.0958 36.2053 25.6075 36.4272 26.1241C36.6862 26.7037 36.9543 27.277 37.2035 27.8594C37.8265 29.3677 38.443 30.8804 39.0529 32.3975C39.3098 32.9914 39.5336 33.599 39.7235 34.2175C40.2207 36.1289 40.3764 38.1131 40.1834 40.0786C40.1645 40.3117 40.2023 40.4223 40.4424 40.5182C40.6594 40.6039 40.8439 40.7557 40.9696 40.9522C41.0971 41.15 41.1575 41.3837 41.1417 41.6186C41.1212 41.828 41.1149 42.0384 41.1228 42.2486C41.1404 42.4585 41.2206 42.6582 41.3531 42.8219C41.6233 43.0489 41.9595 43.1827 42.3117 43.2033C42.6639 43.224 43.0134 43.1305 43.3082 42.9367C44.0058 42.4323 44.5714 41.7669 44.9568 40.997C44.4007 40.4857 43.6973 40.163 42.947 40.075C42.1967 39.987 41.4378 40.1382 40.7785 40.507C40.9416 40.3299 41.1138 40.0996 41.3154 40.0702C41.8901 39.9946 42.0433 39.5802 42.1777 39.1042C42.2638 38.8242 42.35 38.5358 42.427 38.2495C42.72 37.2617 42.7595 36.2159 42.5417 35.2088C42.324 34.2017 41.856 33.2656 41.181 32.4871C40.7878 32.0701 40.3682 31.6788 39.9251 31.3153C40.9102 31.8124 41.7294 32.5853 42.2827 33.5399C43.4902 35.6294 43.0401 37.7567 42.3527 39.8749C43.9725 39.9918 44.5283 40.192 45.1702 40.8955C45.3921 40.8791 45.6129 40.8508 45.8318 40.8108C45.8844 40.7984 45.9336 40.7745 45.9759 40.7408C46.0227 40.7091 46.0619 40.6675 46.0908 40.619C46.228 40.2346 46.3368 39.8406 46.4163 39.4402C46.5713 38.268 46.4431 37.0758 46.0424 35.9633C45.3325 33.6109 44.2414 31.3908 42.8126 29.3917C41.9026 28.1409 41.0583 26.8437 40.2829 25.5053C39.208 23.5797 38.6655 21.4025 38.7114 19.1976C38.7323 18.3793 38.6713 17.5608 38.5294 16.7546C38.3556 15.343 37.7537 14.0185 36.8046 12.9592C35.9635 12.036 34.8764 11.3721 33.671 11.0454C32.4656 10.7188 31.1919 10.7431 29.9998 11.1154C29.3478 11.248 28.729 11.5098 28.1799 11.8854C27.6346 12.2639 27.1689 12.7458 26.8092 13.3036C26.2455 14.2951 25.9638 15.422 25.9945 16.5621C26.0134 18.6621 26.0133 20.7705 26.224 22.8509C26.3666 23.7005 26.3207 24.5711 26.0897 25.401C25.8552 26.2299 25.4431 26.9978 24.8821 27.6515C24.4019 28.2206 23.9539 28.816 23.5402 29.4351C21.8386 32.0201 20.4895 34.8205 19.5285 37.7623C19.2295 38.49 19.1856 39.2976 19.404 40.0534C19.7141 39.7641 20.1097 39.5833 20.5314 39.538C20.9531 39.4926 21.3781 39.5853 21.7426 39.8021Z" fill="black"/>
<path d="M37.2876 23.3359C37.6954 23.5455 38.0863 23.7866 38.4566 24.0569C38.591 24.1612 38.6386 24.3873 38.6869 24.4692C38.6869 24.9991 38.3327 25.2392 37.968 25.0376C37.7103 24.8901 37.4905 24.6844 37.3262 24.437C37.1569 24.1914 37.0453 23.9107 36.9999 23.6159C36.9621 23.3975 37.0867 23.2372 37.2876 23.3359Z" fill="black"/>
<path d="M34.2881 16.3689C34.655 16.3674 35.0109 16.4945 35.294 16.728C35.5739 16.9651 35.7635 17.2914 35.8309 17.652C35.5043 17.0389 34.9504 16.5783 34.2881 16.3689Z" fill="black"/>
<path d="M34.5661 12.9339C35.0071 12.9416 35.1604 13.2762 35.285 13.6087C35.4096 13.9412 35.103 13.9958 34.9301 14.1358C34.8811 14.1635 34.8298 14.1869 34.7768 14.2058C34.1923 14.455 34.0391 14.3563 34.0391 13.7158C34.0489 13.1187 34.1636 12.9304 34.5661 12.9339Z" fill="black"/>
<path d="M29.9754 17.6268L28.7104 16.6013C29.0011 16.6235 29.2783 16.7331 29.5056 16.9156C29.7308 17.0995 29.8947 17.3476 29.9754 17.6268Z" fill="black"/>
<path d="M28.3655 50.1369C28.4222 50.456 28.3758 50.7848 28.2327 51.0756C28.0897 51.3664 27.8577 51.604 27.5703 51.7539C27.3696 51.8922 27.1834 52.0505 27.0146 52.2264C26.6947 52.5726 26.2813 52.8187 25.8245 52.9348C25.3672 53.0534 24.8857 53.041 24.435 52.8991C23.926 52.776 23.4264 52.617 22.9398 52.4231C21.1025 51.7159 19.2047 51.177 17.2699 50.8131C16.6029 50.6809 15.9462 50.501 15.305 50.2748C15.1149 50.2364 14.9352 50.1579 14.7778 50.0445C14.6208 49.9301 14.4901 49.7834 14.3942 49.6145C14.2984 49.4455 14.2397 49.258 14.2221 49.0645C14.2089 48.8707 14.2349 48.6762 14.2984 48.4926C14.5682 47.1549 14.5941 45.7795 14.3747 44.4326C14.2025 43.3686 14.4608 42.9899 15.5059 42.7169C15.9084 42.6126 16.3011 42.4915 16.7036 42.4229C17.0528 42.3604 17.3859 42.2288 17.6835 42.0358C17.9822 41.8423 18.2396 41.5915 18.4409 41.298C18.8051 40.7595 19.2053 40.2461 19.6387 39.7615C20.4437 38.939 21.1528 38.9054 21.9102 39.751C22.7365 40.7018 23.5015 41.7041 24.2006 42.7519C25.291 44.5598 26.4713 46.312 27.737 48.0019C27.9845 48.2952 28.1705 48.6354 28.2837 49.0022C28.3877 49.371 28.4155 49.757 28.3655 50.1369Z" fill="#FFD039"/>
<path d="M49.4078 47.4278C49.0031 47.7423 48.5735 48.0232 48.1232 48.2678C46.2112 49.297 44.4316 50.555 42.8236 52.0142C42.4626 52.3545 42.0353 52.6166 41.5684 52.7842C41.0985 52.9509 40.5995 53.02 40.1019 52.9872C39.8051 52.9683 39.5077 52.9697 39.2109 52.9319C38.7246 52.8949 38.2651 52.6943 37.9074 52.3628C37.5523 52.0299 37.3222 51.5851 37.2557 51.1028C37.0829 50.2377 37.1025 49.3451 37.3131 48.4883C37.7456 46.1422 37.9351 43.7578 37.8787 41.3728C37.8976 40.2934 38.1587 39.9679 39.3543 40.0113C40.1943 40.0379 40.3029 40.1562 40.2168 40.9661C40.1957 41.2085 40.2284 41.4525 40.3126 41.6808C40.3925 41.91 40.5198 42.1196 40.6864 42.2961C40.8554 42.4703 41.0574 42.609 41.2807 42.7042C41.5052 42.7973 41.7468 42.8424 41.9898 42.8365C43.2547 42.9611 44.0597 42.2422 44.7975 41.3833C44.9478 41.1949 45.0824 40.9945 45.2 40.7841C45.2675 40.6728 45.3644 40.5822 45.48 40.5223C45.5913 40.4618 45.7177 40.4346 45.844 40.4439C45.972 40.4542 46.0946 40.4992 46.1989 40.5741C46.2998 40.6493 46.3766 40.7525 46.4194 40.8709C46.5624 41.2083 46.6216 41.5753 46.5923 41.9405C46.5451 42.3008 46.5914 42.6673 46.7267 43.0045C46.865 43.3395 47.0809 43.6367 47.3567 43.8718C47.9658 44.4427 48.6091 44.9759 49.2831 45.4685C49.4647 45.5555 49.6202 45.6887 49.7339 45.8549C49.8488 46.0201 49.9153 46.214 49.9258 46.4149C49.9378 46.6156 49.8947 46.8158 49.8012 46.9938C49.7109 47.1708 49.5751 47.3206 49.4078 47.4278Z" fill="#FFD039"/>
<path d="M28.1647 21.0413C27.9057 21.2681 27.6467 21.4746 27.4073 21.6881C27.2217 21.8042 27.0673 21.9637 26.9572 22.1529C26.8461 22.3427 26.7804 22.5557 26.7654 22.7752C26.7585 22.9942 26.8012 23.2119 26.89 23.4122C26.983 23.6105 27.1208 23.7845 27.2925 23.9204C27.8966 24.5392 28.5574 25.1069 29.2091 25.6648C29.419 25.8135 29.6627 25.9071 29.9182 25.9371C30.4353 26.0319 30.9663 26.0203 31.4788 25.903C31.9913 25.7856 32.4745 25.565 32.8988 25.2546C33.3791 24.8985 33.9004 24.6012 34.4514 24.3691C34.8261 24.2555 35.155 24.0259 35.3909 23.7135C35.6267 23.401 35.7574 23.0217 35.7639 22.6303C35.822 21.9065 35.6876 21.6384 34.9974 21.3654C34.6523 21.2254 34.2974 21.1113 33.8858 20.9608L32.7658 20.5072C32.6672 20.4644 32.5712 20.416 32.4781 20.3623C32.0285 20.1126 31.5302 19.9631 31.0174 19.9241C30.5046 19.8851 29.9894 19.9574 29.5073 20.1362C29.274 20.2135 29.0566 20.332 28.8654 20.4862L28.1647 21.0413Z" fill="#FFD039"/>
<path d="M26.957 23.0827L27.0816 22.9665C27.2199 23.0491 27.3512 23.1427 27.4743 23.2465C28.0407 23.7833 28.7642 24.1243 29.5386 24.2195C30.3131 24.3148 31.0977 24.1592 31.7772 23.7757C32.7068 23.348 33.5692 22.8104 34.4799 22.3372C34.6774 22.2526 34.8828 22.1876 35.0931 22.1433C35.1127 22.1895 35.1316 22.2322 35.1505 22.2784C35.0912 22.3666 35.0206 22.4466 34.9406 22.5164C33.7365 23.393 32.3958 24.0647 30.9729 24.5044C30.3356 24.6864 29.6613 24.6952 29.0195 24.5298C28.3777 24.3645 27.7917 24.0309 27.3217 23.5636C27.1858 23.4147 27.0637 23.2538 26.957 23.0827Z" fill="black"/>
<path d="M37.3069 45.9503C37.0864 47.6674 36.8869 49.2928 36.6769 50.977C34.0869 50.3281 31.4059 50.907 28.7515 50.9C28.6941 50.165 28.6367 49.4174 28.5786 48.66C30.1445 48.9136 31.7479 48.8006 33.2628 48.3298C34.7776 47.8591 36.1627 47.0433 37.309 45.9468L37.3069 45.9503Z" fill="black"/>
<path d="M26.2189 43.0103C26.6389 43.3603 27.0589 43.7214 27.4649 44.1029C27.6396 44.272 27.7683 44.4828 27.8387 44.7154C27.9119 44.9463 27.9283 45.1916 27.8863 45.4302C27.8563 45.6421 27.7548 45.8374 27.5986 45.9838C27.4377 46.1286 27.2305 46.2112 27.0141 46.2169C26.8895 46.212 26.746 46.051 26.6592 45.9264C25.7296 44.4725 24.8097 43.0102 23.8703 41.5563C23.6603 41.2231 23.4105 40.9095 23.1802 40.5882L23.2089 40.5378C24.2162 41.3631 25.2221 42.1808 26.2189 43.0103Z" fill="black"/>
</g>
</g>
</g>
<defs>
<clipPath id="clip0_42_1091">
<rect width="42" height="42" fill="white" transform="translate(11 11)"/>
</clipPath>
</defs>
</svg>
