<svg width="64" height="64" viewBox="0 0 64 64" fill="none" xmlns="http://www.w3.org/2000/svg">
<g clip-path="url(#clip0_42_601)">
<path d="M11.1255 43.7546V20.2454C11.1255 15.372 15.389 11.1255 20.2454 11.1255H32.4054C32.4054 11.1255 27.1361 24.3464 27.1361 34.432C27.1361 35.0421 27.7286 35.648 28.3521 35.648H33.4187C33.4187 47.3563 35.0129 50.5044 35.648 52.8746L20.2454 52.8746C15.402 52.8746 11.1255 48.6342 11.1255 43.7546Z" fill="url(#paint0_linear_42_601)"/>
<path d="M22.0693 24.0959V26.7306" stroke="#474747" stroke-width="1.82399" stroke-linecap="round"/>
<path d="M28.3522 35.648C27.7335 35.648 27.1362 35.0423 27.1362 34.432C27.1362 24.2748 32.4055 11.1255 32.4055 11.1255H43.7548C48.6345 11.1255 52.8747 15.3803 52.8747 20.2454V43.7546C52.8747 48.6047 48.6351 52.8746 43.7548 52.8746H35.6482C35.019 50.5264 33.4189 47.7896 33.4189 35.648H28.3522Z" fill="url(#paint1_linear_42_601)"/>
<path d="M40.4106 23.9946V26.6293" stroke="#474747" stroke-width="1.82399" stroke-linecap="round"/>
<path d="M19.2319 39.2959C21.0567 42.4564 26.1123 44.3625 31.1892 44.3625C36.2563 44.3625 41.3078 42.4805 43.1465 39.2959" stroke="#474747" stroke-width="1.21599" stroke-linecap="round"/>
</g>
<defs>
<linearGradient id="paint0_linear_42_601" x1="20.2467" y1="52.8727" x2="20.2467" y2="11.1425" gradientUnits="userSpaceOnUse">
<stop stop-color="#1D6AF2"/>
<stop offset="1" stop-color="#1AD1FD"/>
</linearGradient>
<linearGradient id="paint1_linear_42_601" x1="43.7548" y1="52.8745" x2="43.7548" y2="11.1215" gradientUnits="userSpaceOnUse">
<stop stop-color="#D1DBE6"/>
<stop offset="1" stop-color="#F1F1F3" stop-opacity="0.983122"/>
</linearGradient>
<clipPath id="clip0_42_601">
<rect width="42" height="42" fill="white" transform="translate(11 11)"/>
</clipPath>
</defs>
</svg>
