<?xml version="1.0" encoding="UTF-8"?>
<svg xmlns="http://www.w3.org/2000/svg" xmlns:xlink="http://www.w3.org/1999/xlink" width="64px" height="64px" viewBox="0 0 64 64" version="1.1">
<defs>
<linearGradient id="linear0" gradientUnits="userSpaceOnUse" x1="0.5" y1="0" x2="0.5" y2="1" gradientTransform="matrix(62.949219,0,0,63.015625,0.519531,0.492188)">
<stop offset="0" style="stop-color:rgb(6.666667%,11.372549%,18.039216%);stop-opacity:1;"/>
<stop offset="0.212" style="stop-color:rgb(1.960784%,9.411765%,22.352941%);stop-opacity:1;"/>
<stop offset="0.407" style="stop-color:rgb(3.921569%,10.588235%,28.235294%);stop-opacity:1;"/>
<stop offset="0.581" style="stop-color:rgb(7.45098%,18.039216%,38.431373%);stop-opacity:1;"/>
<stop offset="0.738" style="stop-color:rgb(7.843137%,29.411765%,49.411765%);stop-opacity:1;"/>
<stop offset="0.873" style="stop-color:rgb(7.45098%,39.215686%,59.215686%);stop-opacity:1;"/>
<stop offset="1" style="stop-color:rgb(7.45098%,52.941176%,72.156863%);stop-opacity:1;"/>
</linearGradient>
</defs>
<g id="surface1">
<path style=" stroke:none;fill-rule:nonzero;fill:url(#linear0);" d="M 1.777344 41.058594 C 5.671875 54.042969 17.710938 63.507812 31.960938 63.507812 C 49.359375 63.507812 63.46875 49.402344 63.46875 32 C 63.46875 14.597656 49.359375 0.492188 31.960938 0.492188 C 15.261719 0.492188 1.597656 13.480469 0.519531 29.90625 C 2.5625 33.332031 3.355469 35.449219 1.773438 41.058594 Z M 1.777344 41.058594 "/>
<path style=" stroke:none;fill-rule:nonzero;fill:rgb(100%,100%,100%);fill-opacity:1;" d="M 30.335938 24.109375 L 30.339844 24.265625 L 22.628906 35.464844 C 21.382812 35.40625 20.128906 35.625 18.9375 36.117188 C 18.421875 36.324219 17.925781 36.589844 17.464844 36.902344 L 0.535156 29.925781 C 0.535156 29.925781 0.140625 36.371094 1.773438 41.171875 L 13.742188 46.113281 C 14.335938 48.796875 16.183594 51.152344 18.90625 52.285156 C 23.359375 54.136719 28.472656 52.03125 30.328125 47.578125 C 30.804688 46.4375 31.035156 45.210938 31.003906 43.976562 L 42.023438 36.097656 L 42.292969 36.101562 C 48.894531 36.101562 54.261719 30.71875 54.261719 24.109375 C 54.261719 17.496094 48.90625 12.136719 42.292969 12.121094 C 35.695312 12.121094 30.324219 17.496094 30.324219 24.109375 Z M 28.484375 46.804688 C 27.054688 50.25 23.101562 51.871094 19.667969 50.441406 C 18.144531 49.800781 16.910156 48.621094 16.199219 47.128906 L 20.097656 48.746094 C 22.628906 49.800781 25.535156 48.601562 26.585938 46.066406 C 27.640625 43.535156 26.445312 40.625 23.914062 39.570312 L 19.875 37.898438 C 21.429688 37.308594 23.195312 37.289062 24.847656 37.976562 C 26.523438 38.667969 27.800781 39.972656 28.488281 41.636719 C 29.171875 43.304688 29.167969 45.144531 28.476562 46.804688 M 42.304688 32.097656 C 37.902344 32.085938 34.335938 28.515625 34.332031 24.109375 C 34.335938 19.707031 37.902344 16.136719 42.304688 16.125 C 46.710938 16.136719 50.277344 19.707031 50.28125 24.109375 C 50.277344 28.515625 46.710938 32.085938 42.304688 32.097656 M 36.332031 24.097656 C 36.328125 20.789062 39.007812 18.101562 42.316406 18.097656 C 45.621094 18.097656 48.308594 20.785156 48.308594 24.097656 C 48.308594 27.40625 45.628906 30.09375 42.316406 30.097656 C 39.007812 30.09375 36.328125 27.40625 36.328125 24.097656 Z M 36.332031 24.097656 "/>
</g>
</svg>
