<?xml version="1.0" encoding="UTF-8"?>
<svg xmlns="http://www.w3.org/2000/svg" xmlns:xlink="http://www.w3.org/1999/xlink" width="64pt" height="49pt" viewBox="0 0 64 49" version="1.1">
<g id="surface1">
<path style=" stroke:none;fill-rule:nonzero;fill:rgb(92.54902%,93.72549%,94.509804%);fill-opacity:1;" d="M 26.800781 14.105469 L 26.933594 17.148438 L 24.800781 21.121094 L 21.464844 27.613281 L 20.800781 33.042969 L 23.199219 40.722656 L 28.667969 43.769531 L 36.933594 43.769531 L 44.667969 37.941406 L 48.132812 28.804688 L 40.132812 19.136719 L 37.867188 13.707031 Z M 26.800781 14.105469 "/>
<path style=" stroke:none;fill-rule:nonzero;fill:rgb(14.901961%,19.607843%,21.960784%);fill-opacity:1;" d="M 45.734375 21.652344 C 43.601562 18.605469 41.867188 16.753906 40.933594 12.914062 C 40 9.070312 41.199219 10.132812 40.398438 6.820312 C 40 5.097656 39.332031 3.90625 38.667969 2.980469 C 37.867188 2.050781 36.933594 1.523438 36.398438 1.390625 C 35.199219 0.726562 32.398438 -0.332031 28.933594 1.523438 C 25.332031 3.378906 25.734375 7.351562 26.398438 15.429688 C 26.398438 15.957031 26.265625 16.621094 26 17.148438 C 25.464844 18.34375 24.535156 19.402344 23.734375 20.328125 C 22.800781 21.652344 21.867188 22.976562 21.199219 24.433594 C 19.601562 27.480469 18.132812 31.320312 18.535156 32.777344 C 19.199219 32.644531 27.601562 45.359375 27.601562 45.621094 C 28.132812 45.492188 30.398438 45.492188 32.398438 45.492188 C 35.199219 45.359375 36.800781 45.226562 39.066406 45.753906 C 39.066406 45.359375 38.933594 44.960938 38.933594 44.5625 C 38.933594 43.769531 39.066406 43.105469 39.199219 42.179688 C 39.332031 41.515625 39.464844 40.855469 39.601562 40.0625 C 38.265625 41.253906 35.867188 42.578125 33.601562 42.972656 C 31.601562 43.371094 28.265625 42.710938 26.667969 40.722656 C 26.800781 40.722656 27.066406 40.722656 27.199219 40.589844 C 27.601562 40.457031 28 40.324219 28.132812 40.0625 C 28.535156 39.398438 28.265625 38.738281 28 38.339844 C 27.734375 37.941406 25.734375 36.484375 24.800781 35.691406 C 23.867188 34.894531 23.332031 34.5 22.800781 33.96875 C 22.800781 33.96875 22 33.175781 21.734375 32.910156 C 21.464844 32.644531 21.332031 32.378906 21.199219 32.246094 C 20.933594 31.585938 20.800781 30.789062 20.933594 29.730469 C 21.066406 28.273438 21.601562 27.082031 22.265625 25.757812 C 22.535156 25.226562 23.199219 24.167969 23.199219 24.167969 C 23.199219 24.167969 20.933594 29.730469 22.132812 31.453125 C 22.132812 31.453125 22.265625 29.730469 22.800781 28.007812 C 23.199219 26.816406 23.867188 25.097656 24.667969 24.167969 C 25.464844 23.242188 27.464844 19.796875 27.601562 17.679688 C 27.601562 16.753906 27.734375 15.824219 27.734375 15.164062 C 27.199219 14.632812 36.535156 13.308594 37.066406 14.765625 C 37.199219 15.296875 39.066406 20.0625 40.132812 22.578125 C 40.667969 23.773438 41.332031 24.832031 41.734375 26.15625 C 42.132812 27.613281 42.398438 29.597656 42.398438 31.585938 C 42.398438 31.984375 42.398438 32.644531 42.265625 33.308594 C 42.535156 33.308594 47.734375 27.746094 41.601562 23.109375 C 41.601562 23.109375 45.332031 24.832031 45.464844 28.273438 C 45.601562 31.054688 44.398438 33.308594 44.132812 33.703125 C 44.265625 33.703125 46.933594 34.894531 47.066406 34.894531 C 47.601562 34.894531 48.667969 34.5 48.667969 34.5 C 48.800781 34.101562 49.199219 33.042969 49.199219 32.644531 C 50.132812 29.597656 47.867188 24.699219 45.734375 21.652344 Z M 45.734375 21.652344 "/>
<path style=" stroke:none;fill-rule:nonzero;fill:rgb(92.54902%,93.72549%,94.509804%);fill-opacity:1;" d="M 30.535156 10.261719 C 30.535156 8.800781 29.757812 7.613281 28.800781 7.613281 C 27.84375 7.613281 27.066406 8.800781 27.066406 10.261719 C 27.066406 11.726562 27.84375 12.914062 28.800781 12.914062 C 29.757812 12.914062 30.535156 11.726562 30.535156 10.261719 Z M 30.535156 10.261719 "/>
<path style=" stroke:none;fill-rule:nonzero;fill:rgb(92.54902%,93.72549%,94.509804%);fill-opacity:1;" d="M 37.066406 10.132812 C 37.066406 8.449219 36.050781 7.085938 34.800781 7.085938 C 33.546875 7.085938 32.535156 8.449219 32.535156 10.132812 C 32.535156 11.8125 33.546875 13.175781 34.800781 13.175781 C 36.050781 13.175781 37.066406 11.8125 37.066406 10.132812 Z M 37.066406 10.132812 "/>
<path style=" stroke:none;fill-rule:nonzero;fill:rgb(12.941176%,12.941176%,12.941176%);fill-opacity:1;" d="M 28.640625 8.984375 C 28.128906 9.046875 27.804688 9.804688 27.917969 10.675781 C 28.027344 11.546875 28.53125 12.203125 29.042969 12.136719 C 29.554688 12.074219 29.878906 11.316406 29.769531 10.445312 C 29.65625 9.574219 29.152344 8.921875 28.640625 8.984375 Z M 28.640625 8.984375 "/>
<path style=" stroke:none;fill-rule:nonzero;fill:rgb(12.941176%,12.941176%,12.941176%);fill-opacity:1;" d="M 36 10.660156 C 36 9.710938 35.402344 8.9375 34.667969 8.9375 C 33.929688 8.9375 33.332031 9.710938 33.332031 10.660156 C 33.332031 11.613281 33.929688 12.382812 34.667969 12.382812 C 35.402344 12.382812 36 11.613281 36 10.660156 Z M 36 10.660156 "/>
<path style=" stroke:none;fill-rule:nonzero;fill:rgb(100%,75.686275%,2.745098%);fill-opacity:1;" d="M 52.398438 39.796875 C 51.867188 39.53125 50.933594 39.132812 50.132812 37.941406 C 49.734375 37.28125 49.867188 35.425781 49.199219 34.632812 C 48.800781 34.101562 48.265625 34.367188 48.132812 34.367188 C 46.933594 34.632812 44.132812 36.484375 42.265625 34.367188 C 42 34.101562 41.601562 33.703125 40.933594 33.703125 C 40.265625 33.703125 40 33.96875 39.734375 34.5 C 39.464844 35.027344 39.464844 35.425781 39.464844 36.75 C 39.464844 37.808594 39.464844 39 39.332031 39.929688 C 39.066406 42.179688 38.667969 43.503906 38.667969 44.828125 C 38.667969 46.285156 39.066406 47.210938 39.601562 47.609375 C 40 48.007812 40.667969 48.273438 42.132812 48.273438 C 43.601562 48.273438 44.535156 47.742188 45.464844 46.816406 C 46.132812 46.152344 46.667969 45.886719 48.535156 44.5625 C 50 43.636719 52.265625 42.445312 52.667969 42.046875 C 52.933594 41.78125 53.332031 41.648438 53.332031 40.855469 C 53.332031 40.191406 52.800781 39.929688 52.398438 39.796875 Z M 52.398438 39.796875 "/>
<path style=" stroke:none;fill-rule:nonzero;fill:rgb(100%,75.686275%,2.745098%);fill-opacity:1;" d="M 25.601562 40.191406 C 24.265625 38.074219 24.132812 37.675781 23.199219 36.351562 C 22.398438 35.027344 20.667969 32.511719 19.601562 32.511719 C 18.800781 32.511719 18.398438 32.910156 17.867188 33.4375 C 17.332031 33.96875 16.800781 35.160156 15.867188 35.824219 C 15.066406 36.484375 12.800781 36.351562 12.265625 37.148438 C 11.734375 37.941406 12.800781 39.132812 12.800781 41.121094 C 12.800781 41.914062 12.132812 42.445312 12 42.972656 C 11.867188 43.636719 11.734375 44.035156 12 44.5625 C 12.535156 45.359375 13.199219 45.621094 17.734375 46.550781 C 20.132812 47.078125 22.398438 48.402344 23.867188 48.535156 C 25.332031 48.667969 27.867188 48.535156 27.867188 44.960938 C 28 42.84375 26.800781 42.3125 25.601562 40.191406 Z M 25.601562 40.191406 "/>
<path style=" stroke:none;fill-rule:nonzero;fill:rgb(100%,75.686275%,2.745098%);fill-opacity:1;" d="M 28.132812 16.222656 C 27.332031 15.691406 26.667969 15.164062 26.667969 14.367188 C 26.667969 13.574219 27.199219 13.308594 28 12.648438 C 28.132812 12.515625 29.601562 11.191406 31.066406 11.191406 C 32.535156 11.191406 34.265625 12.117188 34.933594 12.382812 C 36.132812 12.648438 37.332031 12.914062 37.199219 13.839844 C 37.066406 15.164062 36.933594 15.429688 35.601562 16.089844 C 34.667969 16.355469 32.933594 17.8125 31.734375 17.8125 C 31.199219 17.8125 30.398438 17.8125 29.867188 17.679688 C 29.464844 17.546875 28.800781 16.886719 28.132812 16.222656 Z M 28.132812 16.222656 "/>
<path style=" stroke:none;fill-rule:nonzero;fill:rgb(38.823529%,27.843137%,1.176471%);fill-opacity:1;" d="M 27.867188 15.164062 C 28.132812 15.429688 28.535156 15.691406 28.933594 15.824219 C 29.199219 15.957031 29.601562 16.089844 29.601562 16.089844 C 30.132812 16.089844 30.535156 16.089844 30.800781 16.089844 C 31.464844 16.089844 32.398438 15.824219 33.332031 15.296875 C 34.265625 14.898438 34.398438 14.632812 35.066406 14.367188 C 35.734375 13.972656 36.398438 13.574219 36.132812 13.441406 C 35.867188 13.308594 35.601562 13.441406 34.667969 13.972656 C 33.867188 14.5 33.199219 14.765625 32.398438 15.164062 C 32 15.296875 31.464844 15.5625 31.066406 15.5625 C 30.667969 15.5625 30.265625 15.5625 29.867188 15.5625 C 29.464844 15.5625 29.199219 15.429688 28.800781 15.296875 C 28.535156 15.164062 28.398438 15.03125 28.265625 15.03125 C 28 14.898438 27.464844 14.367188 27.199219 14.238281 C 27.199219 14.238281 26.933594 14.238281 27.066406 14.367188 C 27.464844 14.765625 27.601562 14.898438 27.867188 15.164062 Z M 27.867188 15.164062 "/>
<path style=" stroke:none;fill-rule:nonzero;fill:rgb(38.823529%,27.843137%,1.176471%);fill-opacity:1;" d="M 31.867188 12.25 C 32 12.515625 32.265625 12.515625 32.398438 12.648438 C 32.535156 12.78125 32.667969 12.78125 32.667969 12.78125 C 32.800781 12.648438 32.667969 12.382812 32.535156 12.382812 C 32.535156 12.117188 31.867188 12.117188 31.867188 12.25 Z M 31.867188 12.25 "/>
<path style=" stroke:none;fill-rule:nonzero;fill:rgb(38.823529%,27.843137%,1.176471%);fill-opacity:1;" d="M 29.734375 12.515625 C 29.734375 12.648438 30 12.78125 30 12.648438 C 30.132812 12.515625 30.265625 12.382812 30.398438 12.382812 C 30.667969 12.25 30.535156 12.117188 30.132812 12.117188 C 29.867188 12.25 29.867188 12.382812 29.734375 12.515625 Z M 29.734375 12.515625 "/>
<path style=" stroke:none;fill-rule:nonzero;fill:rgb(27.058824%,35.294118%,39.215686%);fill-opacity:1;" d="M 42.667969 35.957031 C 42.667969 36.085938 42.667969 36.21875 42.667969 36.351562 C 42.933594 36.882812 43.601562 37.015625 44.132812 37.015625 C 44.933594 37.015625 45.734375 36.484375 46.132812 35.957031 C 46.132812 35.824219 46.265625 35.691406 46.398438 35.558594 C 46.667969 35.160156 46.800781 34.894531 46.933594 34.761719 C 46.933594 34.761719 46.800781 34.632812 46.800781 34.5 C 46.667969 34.234375 46.265625 33.96875 45.734375 33.835938 C 45.332031 33.703125 44.667969 33.570312 44.398438 33.570312 C 43.199219 33.4375 42.535156 33.835938 42.132812 34.234375 C 42.132812 34.234375 42.265625 34.234375 42.265625 34.367188 C 42.535156 34.632812 42.667969 34.894531 42.667969 35.292969 C 42.800781 35.558594 42.667969 35.691406 42.667969 35.957031 Z M 42.667969 35.957031 "/>
</g>
</svg>
